<?xml version="1.0" standalone="no"?>
<!DOCTYPE svg PUBLIC "-//W3C//DTD SVG 20010904//EN"
 "http://www.w3.org/TR/2001/REC-SVG-20010904/DTD/svg10.dtd">
<svg version="1.0" xmlns="http://www.w3.org/2000/svg"
 width="500.000000pt" height="500.000000pt" viewBox="0 0 500.000000 500.000000"
 preserveAspectRatio="xMidYMid meet">

<g transform="translate(0.000000,500.000000) scale(0.100000,-0.100000)"
fill="#000000" stroke="none">
<path d="M1975 4576 c-82 -39 -293 -200 -402 -308 -57 -55 -103 -105 -103
-110 0 -5 -27 -35 -59 -67 -83 -82 -94 -107 -98 -226 -2 -55 -4 -107 -4 -115
-1 -8 6 -40 14 -70 9 -30 18 -77 20 -105 7 -75 27 -166 43 -197 8 -15 14 -37
14 -50 0 -13 7 -36 16 -53 14 -27 28 -66 53 -150 16 -55 22 -103 12 -109 -6
-4 -4 -17 5 -34 7 -15 14 -43 14 -62 0 -48 24 -155 48 -215 l19 -49 15 79 c7
43 19 80 25 82 18 6 26 -36 11 -54 -7 -9 -13 -41 -13 -77 0 -48 5 -68 24 -94
13 -18 28 -31 35 -29 6 3 18 8 26 11 18 7 57 -55 46 -73 -4 -6 0 -24 8 -40 9
-16 15 -47 13 -68 -2 -35 0 -38 26 -41 21 -3 27 1 27 15 0 20 -24 151 -47 263
-13 57 -16 124 -14 280 1 183 4 212 24 268 12 34 25 62 29 62 5 0 8 5 8 11 0
6 10 25 23 42 13 18 32 49 42 70 18 34 23 37 50 31 16 -4 36 -15 43 -25 8 -11
22 -17 40 -15 15 1 32 -1 39 -6 6 -5 24 -7 40 -5 15 3 44 -2 63 -10 32 -13 36
-13 51 5 13 17 17 18 25 5 8 -12 13 -11 32 7 21 19 25 20 40 8 25 -21 67 -8
66 20 -1 29 10 28 24 -3 17 -37 38 -41 66 -10 13 14 37 27 53 29 17 1 27 7 25
16 -2 9 6 11 33 7 26 -4 35 -2 35 8 0 13 11 17 73 30 9 2 17 0 17 -3 0 -8 37
-7 143 3 72 6 146 -11 177 -41 21 -21 113 -78 122 -76 8 2 32 -67 26 -73 -2
-3 -29 5 -59 16 -50 19 -68 20 -249 15 -277 -8 -306 -10 -323 -25 -18 -14 -37
-7 -37 13 0 15 -68 27 -76 14 -3 -4 -15 -8 -28 -8 -12 0 -27 -5 -33 -11 -6 -6
-71 -12 -156 -14 -204 -6 -226 -13 -304 -94 -26 -27 -30 -66 -8 -75 22 -8 18
-29 -10 -62 -18 -21 -25 -41 -25 -70 0 -56 11 -64 73 -47 51 13 87 10 87 -8 0
-5 -13 -12 -30 -16 -38 -7 -41 -40 -5 -49 14 -3 25 -12 25 -20 0 -8 7 -14 15
-14 9 0 26 -7 38 -15 29 -18 143 -13 187 9 18 9 39 16 47 16 7 0 13 4 13 8 0
9 11 12 64 15 31 2 38 8 65 55 17 30 31 62 31 71 0 22 26 58 36 49 4 -4 13 -3
19 2 21 17 57 -7 90 -57 38 -59 76 -87 117 -86 18 1 48 -6 67 -14 18 -8 68
-17 110 -20 63 -4 84 -1 124 17 27 12 51 28 54 35 2 8 13 17 24 20 30 10 23
39 -13 54 -32 12 -33 13 -10 23 16 8 29 8 48 0 40 -19 57 -14 80 21 29 43 38
83 20 90 -16 6 -28 79 -12 74 17 -5 65 -100 70 -138 2 -19 7 -41 10 -49 3 -8
7 -60 9 -115 3 -77 2 -94 -6 -72 -6 15 -14 27 -18 27 -9 0 -19 -38 -19 -77 0
-18 -4 -33 -8 -33 -5 0 -8 -17 -8 -37 1 -34 -2 -39 -31 -48 -18 -5 -33 -14
-33 -20 0 -7 -12 -17 -26 -24 -21 -9 -30 -8 -52 7 -15 11 -33 17 -39 15 -7 -3
-13 0 -13 6 0 19 -30 12 -31 -6 0 -11 -3 -13 -6 -5 -2 6 -8 12 -13 12 -5 0
-21 5 -37 12 -15 6 -42 12 -60 13 -18 1 -59 20 -95 43 -63 41 -88 51 -88 33 0
-5 7 -14 16 -22 24 -19 44 -65 44 -98 0 -37 -11 -44 -47 -30 -15 6 -66 14
-113 19 -70 6 -89 5 -110 -8 -14 -9 -28 -20 -31 -25 -4 -5 -16 -3 -27 4 -18
11 -26 9 -61 -14 l-41 -27 -20 20 c-25 25 -25 67 0 105 37 55 16 61 -50 14
-24 -17 -64 -38 -89 -47 -73 -24 -105 -46 -121 -79 -12 -25 -20 -31 -37 -26
-25 6 -30 -6 -11 -25 9 -9 9 -12 -3 -12 -22 0 -51 -54 -37 -68 9 -9 9 -15 0
-24 -7 -7 -12 -19 -12 -27 0 -13 2 -13 9 -3 7 11 9 10 14 -3 4 -9 1 -18 -8
-21 -18 -7 -19 -23 -3 -61 6 -15 10 -38 9 -50 -1 -13 1 -23 6 -23 5 0 10 -15
11 -33 1 -18 4 -43 7 -55 2 -14 -1 -22 -8 -21 -27 3 -36 -2 -30 -17 4 -12 2
-15 -8 -12 -20 7 -40 -17 -32 -38 5 -14 3 -16 -11 -11 -13 5 -7 -8 18 -43 42
-58 42 -61 16 -85 -11 -10 -20 -24 -20 -32 0 -7 -5 -13 -10 -13 -16 0 -50 -39
-40 -45 21 -13 -23 -110 -64 -144 -9 -8 -30 -31 -47 -52 l-30 -38 23 -23 23
-23 -22 -3 c-24 -4 -30 -16 -13 -27 16 -10 12 -28 -5 -21 -17 6 -21 -9 -5 -19
19 -12 -2 -27 -29 -20 l-26 7 23 -24 c28 -31 28 -38 -4 -38 -59 0 -83 39 -44
73 12 10 20 29 20 47 0 16 4 30 9 30 13 0 23 93 10 101 -8 4 -6 14 6 33 17 26
35 34 35 16 0 -28 40 3 92 72 25 33 26 36 9 41 -14 3 -17 0 -14 -14 4 -15 0
-19 -23 -19 -23 0 -39 -12 -79 -61 -27 -33 -50 -68 -50 -77 0 -9 -7 -17 -16
-17 -20 0 -169 -135 -150 -135 8 0 31 18 52 40 41 43 79 53 79 21 0 -10 -7
-22 -16 -25 -8 -3 -13 -10 -10 -15 10 -16 -16 -61 -35 -61 -13 0 -18 -7 -16
-22 1 -17 -4 -24 -21 -26 -31 -5 -55 16 -48 43 12 46 -20 40 -59 -11 -24 -31
-25 -36 -11 -61 11 -22 56 -149 56 -158 0 -3 -120 -78 -172 -109 -39 -22 -49
-34 -58 -67 -6 -23 -9 -43 -7 -46 3 -2 20 5 38 16 36 22 84 27 108 12 17 -11
18 -110 1 -142 -25 -45 -120 -60 -151 -23 -19 24 -29 16 -29 -24 0 -26 7 -45
20 -57 14 -13 17 -22 10 -35 -7 -14 -5 -19 10 -23 27 -7 26 -48 0 -72 -20 -18
-21 -18 -38 -1 -12 14 -14 20 -4 23 14 5 17 53 3 53 -13 0 -21 -55 -14 -91 5
-25 1 -35 -14 -48 -12 -10 -23 -34 -27 -61 -7 -43 -6 -44 9 -22 35 48 87 -28
67 -96 -13 -42 -72 -105 -79 -84 -17 46 -43 -66 -35 -154 2 -29 -1 -61 -7 -72
-17 -32 -3 -54 32 -50 28 3 32 8 42 53 14 60 31 95 48 95 7 0 34 -7 61 -15 62
-19 76 -19 76 1 0 9 6 14 13 11 7 -2 12 -24 12 -59 0 -57 18 -88 49 -88 21 0
21 1 -14 100 -29 83 -42 102 -55 81 -9 -15 -26 -13 -49 4 -16 12 -17 17 -6 30
16 19 30 19 30 0 0 -28 19 -15 40 25 35 69 46 59 90 -92 15 -49 21 -89 17
-112 l-6 -36 134 0 134 0 3 118 c2 64 -1 162 -5 217 -5 55 -6 142 -2 193 7 98
1 108 -35 72 -24 -24 -25 -47 -3 -72 9 -11 11 -18 5 -18 -7 0 -12 5 -12 10 0
6 -9 10 -19 10 -15 0 -19 7 -19 36 0 43 27 74 63 74 31 0 73 39 55 50 -15 9
-3 53 13 47 14 -4 26 -98 27 -227 1 -52 3 -117 5 -145 2 -27 1 -63 -2 -78 -4
-23 -7 -26 -20 -16 -12 10 -16 10 -24 -2 -15 -23 -10 -31 14 -25 23 5 23 4 25
-75 1 -75 0 -80 -19 -74 -14 5 -19 2 -19 -10 0 -11 5 -15 15 -11 12 4 15 -3
15 -29 0 -27 -4 -34 -22 -38 -13 -2 73 -5 189 -6 l213 -1 5 23 c3 12 12 72 20
132 19 134 32 182 47 187 10 4 9 19 -1 69 -11 57 -8 119 6 119 2 0 13 -5 24
-10 24 -13 24 -3 -1 51 -11 24 -20 54 -20 65 0 24 38 54 69 54 18 0 19 3 10
24 -8 17 -8 29 0 44 17 32 13 48 -14 60 -14 6 -25 18 -25 26 0 7 -11 21 -25
30 -14 9 -23 21 -20 27 16 26 165 -33 186 -73 25 -46 73 -86 112 -91 20 -3 37
-2 37 4 0 15 77 10 108 -8 36 -21 52 -11 84 51 51 101 104 131 215 125 45 -3
49 -1 76 36 39 55 112 210 127 270 16 68 50 155 60 155 15 0 41 -97 50 -185 5
-48 16 -108 24 -133 8 -26 24 -96 36 -157 36 -191 51 -255 62 -261 6 -4 8 -2
4 4 -3 6 -2 13 3 16 6 4 6 18 1 35 -4 16 -4 33 0 37 5 5 0 27 -11 48 -24 50
-24 59 0 44 43 -27 54 -106 24 -180 -9 -23 -17 -71 -17 -107 -1 -58 -4 -67
-23 -76 -36 -16 -30 -33 30 -82 8 -6 17 -40 21 -78 4 -37 13 -80 21 -95 11
-21 13 -49 8 -114 -5 -76 -4 -86 11 -86 9 0 16 8 16 20 0 26 25 26 43 -1 12
-16 23 -20 62 -17 l48 3 -52 61 c-28 34 -51 66 -51 72 0 5 19 31 43 57 23 26
78 95 122 154 82 109 107 125 130 85 18 -31 77 -94 88 -94 7 0 7 4 -1 12 -16
16 -15 28 1 28 19 0 47 -33 47 -53 0 -10 8 -17 20 -17 20 0 38 -39 26 -58 -3
-5 1 -16 10 -23 8 -7 14 -24 12 -39 -1 -15 5 -34 15 -44 23 -23 22 -56 -2 -56
-14 0 -17 -6 -13 -25 3 -16 -2 -33 -13 -45 -17 -19 -17 -20 1 -20 11 0 26 6
32 12 10 10 14 10 21 0 6 -9 40 -12 135 -10 l128 3 -55 110 c-31 61 -87 175
-126 255 -38 80 -93 177 -122 215 -28 39 -81 115 -116 170 -36 55 -74 110 -86
122 l-20 23 -15 -21 c-10 -15 -17 -17 -27 -9 -10 8 -14 8 -17 -1 -6 -19 -38
-2 -38 19 0 11 7 25 15 32 8 7 15 21 15 31 0 11 5 19 11 19 5 0 2 13 -8 30
-22 38 -32 38 -39 0 -9 -43 -23 -50 -64 -34 -29 12 -53 42 -134 166 -96 148
-99 152 -86 182 7 17 18 56 25 86 14 62 9 78 -52 146 l-35 39 26 -36 c27 -38
34 -73 15 -85 -14 -8 -74 50 -94 92 -17 36 -20 84 -6 84 6 0 -2 18 -16 40 -25
37 -28 39 -44 24 -31 -28 -50 -11 -43 40 6 41 5 45 -17 48 -18 2 -25 10 -27
31 -2 18 -13 32 -33 42 -16 9 -29 19 -30 23 0 4 -2 22 -5 40 -3 26 5 49 37
102 49 82 81 176 99 285 7 44 19 92 26 107 18 35 18 53 -1 71 -7 8 -17 28 -20
43 -6 28 -6 28 9 -3 17 -38 19 -39 57 -16 23 14 29 23 24 40 -4 18 -1 23 15
23 22 0 41 32 76 129 12 36 30 84 38 106 16 42 22 202 8 220 -4 6 -18 12 -32
13 -34 5 -38 11 -17 26 10 8 17 26 17 47 0 19 9 70 20 114 11 44 20 88 20 97
0 9 7 29 15 45 35 68 103 220 109 245 10 42 -54 243 -125 392 -11 22 -19 47
-19 57 0 24 -147 199 -219 261 -25 21 -130 58 -165 58 -14 0 -27 4 -30 9 -5 8
-82 22 -204 36 -38 5 -57 13 -71 31 -10 13 -26 24 -34 24 -32 0 -65 23 -88 61
-13 21 -30 41 -38 44 -10 4 -10 -1 3 -19 31 -48 10 -63 -37 -26 -16 13 -27 16
-29 9 -3 -8 -13 -7 -33 3 -19 10 -37 12 -50 7 -34 -13 -87 -10 -159 11 -52 15
-99 19 -200 19 -117 0 -137 -2 -181 -23z m208 -13 c-7 -2 -19 -2 -25 0 -7 3
-2 5 12 5 14 0 19 -2 13 -5z m237 -1163 c-19 -13 -30 -13 -30 0 0 6 10 10 23
10 18 0 19 -2 7 -10z m-340 -420 c0 -5 -4 -10 -10 -10 -5 0 -10 5 -10 10 0 6
5 10 10 10 6 0 10 -4 10 -10z m-540 -20 c0 -5 -7 -10 -16 -10 -8 0 -12 5 -9
10 3 6 10 10 16 10 5 0 9 -4 9 -10z m1900 -81 c7 -23 5 -25 -22 -21 -32 5 -42
16 -34 38 9 24 49 13 56 -17z m26 -167 c-7 -20 -22 -41 -34 -47 -12 -5 -27
-22 -33 -37 -15 -36 -24 -41 -48 -28 -30 15 -8 60 29 60 27 0 70 45 70 73 0
17 10 28 21 22 4 -3 2 -22 -5 -43z m-597 -209 c18 -19 6 -63 -26 -90 -31 -27
-46 -29 -63 -8 -7 8 -18 15 -24 15 -13 0 -13 80 -1 101 21 33 70 25 114 -18z
m-549 -33 c0 -11 5 -20 10 -20 15 0 -22 -49 -36 -50 -19 0 -24 27 -8 41 8 7
13 18 10 25 -5 13 2 24 16 24 4 0 8 -9 8 -20z m465 -210 c9 -14 -30 -27 -110
-35 -85 -9 -80 1 12 25 82 22 90 23 98 10z m-745 -40 c0 -5 -2 -10 -4 -10 -3
0 -8 5 -11 10 -3 6 -1 10 4 10 6 0 11 -4 11 -10z m877 -54 c-9 -7 -17 -21 -17
-30 0 -14 -4 -15 -20 -6 -26 14 -26 30 0 30 10 0 25 6 32 14 7 8 15 12 18 9 3
-2 -3 -10 -13 -17z m-596 -31 c18 -5 29 -15 32 -31 5 -26 -7 -42 -18 -24 -3 5
-17 10 -31 10 -14 0 -22 4 -19 10 3 6 -3 10 -14 10 -23 0 -24 1 -15 24 4 10
13 14 23 12 9 -3 28 -8 42 -11z m-93 -162 c-2 -20 -8 -27 -20 -25 -10 2 -18
-2 -18 -8 0 -12 -20 -13 -39 -1 -25 16 12 61 50 61 27 0 30 -3 27 -27z m472
17 c0 -7 6 -8 17 -2 9 6 29 6 45 1 16 -4 36 -5 44 -2 9 3 14 -1 14 -14 0 -14
-11 -23 -37 -31 -60 -18 -102 -22 -108 -12 -3 6 -17 10 -31 10 -14 0 -22 4
-19 10 3 6 17 10 30 10 13 0 27 5 30 10 3 6 -3 10 -14 10 -12 0 -21 5 -21 10
0 6 11 10 25 10 14 0 25 -5 25 -10z m185 -17 c-2 -10 -4 -22 -4 -26 -1 -5 -5
-6 -10 -3 -11 7 -3 46 9 46 5 0 7 -8 5 -17z m-35 -8 c0 -8 -4 -15 -10 -15 -5
0 -7 7 -4 15 4 8 8 15 10 15 2 0 4 -7 4 -15z m-380 -25 c0 -5 -5 -10 -11 -10
-5 0 -7 5 -4 10 3 6 8 10 11 10 2 0 4 -4 4 -10z m-45 -9 c3 -5 1 -12 -4 -16
-13 -8 -61 5 -61 16 0 12 57 12 65 0z m-389 -210 c5 -55 4 -72 -5 -67 -6 4
-11 17 -11 29 0 12 -4 28 -9 36 -10 15 -31 7 -31 -13 0 -8 -7 -19 -15 -26 -8
-7 -15 -23 -15 -35 0 -13 -6 -25 -14 -28 -8 -3 -12 -15 -9 -31 4 -17 0 -28
-10 -32 -9 -3 -14 -11 -11 -18 5 -14 -23 -97 -63 -186 -61 -134 -158 -393
-203 -538 -13 -40 -25 -71 -27 -69 -2 3 1 34 8 69 11 62 11 67 -20 151 l-32
87 18 95 18 95 43 0 c35 0 42 -3 42 -20 0 -13 -14 -27 -41 -41 -34 -17 -40
-24 -35 -42 3 -12 12 -50 18 -85 7 -34 17 -61 23 -59 11 4 11 87 0 131 -7 26
-6 28 14 21 17 -5 23 -1 31 20 5 14 10 39 10 54 0 16 10 41 22 56 13 17 21 40
20 61 -1 26 5 38 28 54 15 11 31 34 35 50 9 43 121 257 161 309 19 24 34 51
34 60 1 42 19 -20 26 -88z m1212 -146 c-3 -3 -9 2 -12 12 -6 14 -5 15 5 6 7
-7 10 -15 7 -18z m217 -185 c0 -22 -29 -18 -33 3 -3 14 1 18 15 15 10 -2 18
-10 18 -18z m-93 -97 c16 -102 14 -141 -5 -107 -6 11 -12 28 -13 40 -19 178
-6 226 18 67z m-1822 -23 c0 -5 -5 -10 -11 -10 -5 0 -7 5 -4 10 3 6 8 10 11
10 2 0 4 -4 4 -10z m1958 -87 c4 -25 -16 -31 -36 -11 -20 20 -14 40 11 36 14
-2 23 -11 25 -25z m-1668 -100 c-11 -17 -11 -17 -6 0 3 10 7 33 8 50 l1 32 4
-32 c2 -18 -1 -41 -7 -50z m-373 -17 c-4 -13 -47 -21 -47 -9 0 5 5 14 11 20
14 14 41 5 36 -11z m2119 -21 c82 -96 23 -197 -77 -131 -33 22 -39 32 -40 64
-3 86 8 104 58 98 23 -2 44 -13 59 -31z m-2026 -36 c0 -11 -7 -19 -16 -19 -11
0 -14 5 -10 16 3 9 6 20 6 25 0 6 5 7 10 4 6 -3 10 -15 10 -26z m290 11 c0 -5
-4 -10 -10 -10 -5 0 -10 5 -10 10 0 6 5 10 10 10 6 0 10 -4 10 -10z m0 -65 c0
-14 -4 -25 -10 -25 -5 0 -10 11 -10 25 0 14 5 25 10 25 6 0 10 -11 10 -25z
m1860 -54 c7 -14 7 -22 0 -26 -13 -8 -40 13 -40 31 0 21 28 17 40 -5z m-1879
-44 c-8 -8 -11 -4 -11 14 0 33 14 47 18 19 2 -12 -1 -27 -7 -33z m-304 13 c-1
-17 -5 -30 -10 -30 -4 0 -11 0 -16 0 -14 0 -20 37 -8 49 21 21 37 12 34 -19z
m303 -65 c0 -14 -4 -25 -10 -25 -11 0 -14 33 -3 43 11 11 13 8 13 -18z m1802
8 c10 -9 18 -24 18 -35 0 -19 -15 -24 -25 -8 -3 5 -12 7 -19 4 -18 -7 -29 25
-15 42 15 18 19 18 41 -3z m184 6 c5 -8 9 -7 14 1 6 9 23 -2 61 -39 48 -48 53
-56 57 -106 l4 -55 -31 0 c-19 0 -31 -5 -31 -13 0 -9 -19 -13 -67 -12 l-67 0
-19 65 c-18 59 -21 63 -30 42 -16 -35 -41 -23 -43 21 -3 40 17 52 35 20 7 -13
8 -6 4 25 -5 36 -3 42 13 43 28 1 55 7 62 13 9 10 30 7 38 -5z m-2241 -39 c19
-21 14 -50 -8 -50 -22 0 -39 27 -32 50 8 25 17 25 40 0z m2002 -8 c14 -9 12
-74 -3 -79 -6 -2 -19 8 -28 22 -13 19 -14 30 -6 45 12 22 18 24 37 12z m-2079
-49 c-2 -9 -20 -21 -41 -27 -79 -23 -122 -101 -97 -177 13 -39 42 -69 66 -69
12 0 28 59 19 68 -2 3 -11 -1 -20 -8 -8 -7 -22 -10 -30 -6 -24 9 -18 36 11 46
14 6 22 15 19 21 -4 6 -13 8 -20 5 -8 -3 -19 2 -26 10 -10 12 -9 18 4 31 13
14 19 14 32 3 21 -18 29 -7 13 19 -17 28 1 48 31 32 12 -7 21 -17 21 -23 0 -7
6 -4 13 6 15 21 39 16 75 -13 29 -25 20 -55 -15 -48 -23 4 -28 -2 -56 -61 -17
-36 -26 -67 -21 -69 32 -11 74 -46 74 -61 0 -29 -10 -32 -49 -16 -20 9 -53 16
-75 15 -32 -1 -44 5 -73 36 -43 45 -56 76 -54 132 2 64 37 121 91 149 54 27
113 30 108 5z m2167 -63 c0 -16 -6 -26 -18 -28 -23 -5 -47 15 -47 39 0 15 7
18 33 16 27 -2 32 -7 32 -27z m305 -72 c0 -6 7 -19 15 -28 17 -19 32 -80 19
-80 -14 0 -47 62 -50 93 -1 15 2 27 7 27 5 0 9 -5 9 -12z m-330 -28 c26 -14
60 -72 60 -103 0 -29 -41 -83 -71 -92 -31 -10 -87 14 -110 46 -44 62 -2 159
68 159 19 0 43 -4 53 -10z m155 -55 c0 -13 -8 -21 -22 -23 -17 -3 -23 2 -23
16 0 10 3 22 7 26 13 13 38 1 38 -19z m135 -15 c0 -11 -6 -20 -14 -20 -20 0
-39 27 -32 45 8 22 46 1 46 -25z m87 -52 c14 -16 28 -68 18 -68 -3 0 -24 14
-46 32 -25 20 -39 39 -39 55 0 23 1 23 28 9 16 -8 33 -21 39 -28z m-2587 -86
c0 -18 -47 -45 -61 -36 -19 11 -8 41 19 50 32 12 42 9 42 -14z m-80 -48 c0 -8
-5 -14 -11 -14 -5 0 -9 -10 -7 -22 2 -17 -3 -24 -18 -26 -34 -5 -43 46 -13 69
25 18 49 15 49 -7z m2243 -21 c10 -17 -13 -53 -33 -53 -24 0 -26 22 -4 44 17
17 30 20 37 9z m-1925 -57 c7 -4 10 -12 6 -17 -4 -6 -11 -6 -19 1 -10 8 -20 5
-41 -14 -28 -24 -29 -24 -10 -45 11 -12 30 -21 43 -21 31 0 29 -18 -3 -31 -21
-7 -31 -6 -44 6 -9 8 -21 15 -27 15 -6 0 -14 16 -17 35 -9 46 20 81 67 80 18
-1 39 -5 45 -9z m-508 -76 c0 -11 -4 -20 -10 -20 -5 0 -10 9 -10 20 0 11 5 20
10 20 6 0 10 -9 10 -20z"/>
<path d="M1670 1108 c0 -19 2 -20 10 -8 13 19 13 30 0 30 -5 0 -10 -10 -10
-22z"/>
<path d="M3504 1016 c-3 -13 -1 -34 5 -45 19 -34 81 -40 81 -8 0 8 -3 8 -9 -1
-12 -19 -41 -11 -58 15 -13 19 -12 24 6 42 21 21 21 21 1 21 -12 0 -22 -9 -26
-24z"/>
<path d="M3766 761 c-9 -15 17 -113 31 -118 17 -7 43 15 38 30 -2 7 -9 31 -15
55 -8 31 -16 42 -30 42 -10 0 -21 -4 -24 -9z"/>
<path d="M3566 514 c-35 -35 -10 -104 38 -104 55 0 70 72 23 105 -27 19 -42
19 -61 -1z m58 -20 c22 -21 20 -51 -4 -64 -15 -8 -24 -6 -40 10 -23 23 -25 41
-8 58 16 16 33 15 52 -4z"/>
<path d="M3097 2774 c-8 -8 1 -24 14 -24 5 0 9 7 9 15 0 15 -12 20 -23 9z"/>
<path d="M3190 2690 c0 -5 5 -10 10 -10 6 0 10 5 10 10 0 6 -4 10 -10 10 -5 0
-10 -4 -10 -10z"/>
<path d="M2190 2646 c0 -9 7 -16 16 -16 9 0 14 5 12 12 -6 18 -28 21 -28 4z"/>
<path d="M1596 2557 c3 -10 9 -15 12 -12 3 3 0 11 -7 18 -10 9 -11 8 -5 -6z"/>
<path d="M1631 2498 c11 -15 25 -31 32 -35 7 -4 7 0 -2 10 -11 14 -11 20 -1
32 14 17 14 17 -22 19 l-26 2 19 -28z"/>
<path d="M1882 2518 c6 -18 28 -21 28 -4 0 9 -7 16 -16 16 -9 0 -14 -5 -12
-12z"/>
<path d="M1875 2474 c2 -16 4 -33 5 -39 0 -5 5 -2 11 8 7 12 6 23 -5 39 -15
21 -15 20 -11 -8z"/>
<path d="M3550 1314 c-14 -42 -7 -56 11 -22 6 12 16 26 22 29 11 7 1 29 -13
29 -5 0 -14 -16 -20 -36z"/>
<path d="M1354 1272 c-10 -15 -7 -22 12 -41 35 -34 31 -57 -13 -71 -41 -13
-66 -30 -45 -30 21 0 93 40 98 55 6 15 -24 105 -35 105 -3 0 -11 -8 -17 -18z"/>
<path d="M1327 1204 c3 -7 9 -14 14 -14 14 0 10 17 -5 23 -10 4 -13 1 -9 -9z"/>
<path d="M3640 1101 c0 -5 13 -23 29 -40 28 -30 61 -41 61 -21 0 6 -7 10 -16
10 -9 0 -21 14 -27 30 -10 27 -47 44 -47 21z"/>
<path d="M1365 905 c0 -34 3 -41 13 -33 6 6 12 21 12 33 0 12 -6 27 -12 33
-10 8 -13 1 -13 -33z"/>
<path d="M3165 889 c-67 -44 -115 -92 -115 -114 0 -12 8 -14 39 -9 36 6 40 4
43 -17 2 -20 9 -24 38 -26 149 -7 161 -9 185 -39 13 -16 29 -55 37 -88 7 -32
18 -66 24 -74 18 -25 38 47 26 90 -22 74 -60 166 -87 208 -32 52 -93 109 -115
109 -8 0 -42 -18 -75 -40z"/>
<path d="M1300 850 c8 -5 20 -10 25 -10 6 0 3 5 -5 10 -8 5 -19 10 -25 10 -5
0 -3 -5 5 -10z"/>
<path d="M1795 600 c-3 -5 -1 -10 4 -10 6 0 11 5 11 10 0 6 -2 10 -4 10 -3 0
-8 -4 -11 -10z"/>
<path d="M2677 552 c-26 -15 -28 -21 -22 -57 11 -74 18 -68 72 63 7 17 -17 15
-50 -6z"/>
<path d="M1795 519 c-10 -15 3 -25 16 -12 7 7 7 13 1 17 -6 3 -14 1 -17 -5z"/>
<path d="M1806 441 c-4 -7 -5 -15 -2 -18 9 -9 19 4 14 18 -4 11 -6 11 -12 0z"/>
<path d="M3833 338 c-17 -24 -61 -74 -97 -113 -36 -38 -65 -76 -66 -83 0 -7
24 -41 53 -76 50 -62 54 -64 98 -65 40 -1 48 2 53 21 l7 23 16 -23 c13 -18 25
-22 70 -22 54 0 54 0 39 22 -25 35 -19 42 9 11 24 -27 25 -28 40 -9 27 35 12
76 -27 76 -10 0 -18 6 -18 14 0 8 -3 21 -6 29 -3 10 3 17 21 21 14 4 28 13 32
21 8 23 -25 67 -45 61 -20 -6 -75 46 -102 96 -24 46 -41 45 -77 -4z m77 -43
c0 -28 -27 -55 -34 -34 -10 32 -15 77 -9 83 11 11 43 -26 43 -49z m-39 -62
c11 -29 33 -26 37 5 5 30 30 28 44 -4 10 -22 10 -28 -5 -39 -23 -17 -22 -28 2
-15 28 15 51 12 51 -5 0 -8 -9 -15 -19 -15 -30 0 -35 -19 -12 -44 12 -12 21
-25 21 -29 0 -13 -27 -7 -40 8 -7 9 -15 13 -18 10 -3 -3 3 -14 12 -24 12 -13
15 -27 11 -41 -9 -30 -39 -21 -43 13 -4 35 -27 35 -44 0 -18 -38 -52 -38 -56
-1 -2 19 1 28 11 28 8 0 20 6 26 14 18 21 -6 32 -28 12 -25 -23 -64 -20 -89 7
l-22 23 26 32 c31 37 46 39 81 12 25 -19 43 -19 43 1 0 5 -11 14 -25 19 -29
11 -34 44 -8 59 22 12 32 6 44 -26z"/>
<path d="M3756 161 c-17 -18 -17 -20 4 -41 l22 -22 21 21 c20 20 20 21 2 41
-22 25 -27 25 -49 1z"/>
<path d="M3880 150 c0 -5 5 -10 10 -10 6 0 10 5 10 10 0 6 -4 10 -10 10 -5 0
-10 -4 -10 -10z"/>
<path d="M1797 354 c-8 -8 1 -24 14 -24 5 0 9 7 9 15 0 15 -12 20 -23 9z"/>
<path d="M1800 175 c0 -9 5 -15 11 -13 6 2 11 8 11 13 0 5 -5 11 -11 13 -6 2
-11 -4 -11 -13z"/>
<path d="M4062 123 c2 -9 8 -18 15 -20 7 -3 9 3 6 16 -6 25 -26 28 -21 4z"/>
<path d="M1254 53 c-3 -16 -7 -34 -10 -41 -5 -16 123 -17 128 0 2 6 2 24 0 40
-4 27 -7 28 -58 28 -50 0 -54 -2 -60 -27z"/>
</g>
</svg>
